<?xml version="1.0" encoding="UTF-8"?>
<svg id="_레이어_2" data-name="레이어 2" xmlns="http://www.w3.org/2000/svg" viewBox="0 0 246.63 144.13">
  <defs>
    <style>
      .cls-1 {
        fill: #eadcf9;
      }

      .cls-2 {
        fill: #af5cff;
      }

      .cls-3 {
        fill: #c786fb;
      }

      .cls-4 {
        fill: #9b40e8;
      }

      .cls-5 {
        fill: #8440bb;
      }
    </style>
  </defs>
  <g id="_레이어_1-2" data-name="레이어 1">
    <g>
      <g>
        <path class="cls-2" d="m7.57,77.13c1.66-.02,1.46-.11,4.78-.15,3.32-.03,6.8-.02,10.45.05,3.65.07,7.08.15,10.3.25,3.22.1,5.53.22,6.92.35,1.73.13,3.05.81,3.98,2.04.93,1.23,1.39,2.44,1.39,3.63,0,.6-.13,1.28-.4,2.04-.27.76-.68,1.46-1.24,2.09-.56.63-1.26,1.14-2.09,1.54-.83.4-1.81.6-2.94.6-1.79-.07-3.88-.15-6.27-.25-2.39-.1-4.75-.18-7.07-.25-2.32-.07-4.43-.11-6.32-.15-1.89-.03-3.24-.02-4.03.05-1.26.07-1.89.63-1.89,1.69v1.79c0,.8.02,1.68.05,2.64.03.96.05,1.94.05,2.94v2.69c0,.73.15,1.24.45,1.54.3.3.91.45,1.84.45l19.81.1c2.12,0,3.72.61,4.78,1.84,1.06,1.23,1.63,2.51,1.69,3.83.07,1.53-.46,2.97-1.59,4.33-1.13,1.36-2.85,2.04-5.18,2.04h-10.35c-1.99,0-3.85.02-5.58.05-1.73.03-2.89.08-3.48.15-.93.13-1.51.47-1.74,1-.23.53-.35,1.26-.35,2.19,0,.33-.02,1.28-.05,2.84-.03,1.56-.07,3.29-.1,5.18-.03,1.89-.07,3.78-.1,5.67-.03,1.89-.05,3.37-.05,4.43,0,2.52-.71,4.45-2.14,5.77-1.43,1.33-3.24,1.99-5.43,1.99-1.99,0-3.4-.47-4.23-1.39-.83-.93-1.28-2.99-1.34-6.17,0-1.46-.02-3.78-.05-6.97-.03-3.19-.05-6.72-.05-10.6v-23.84c0-2.42-.01-4.83,0-7.25,0-1.35-.01-2.67.26-3.99.72-3.47,3.52-6.75,7.3-6.78Z"/>
        <path class="cls-2" d="m50.36,144.11c-.64.05-1.31-.04-2-.28-.69-.24-1.32-.6-1.88-1.08-.56-.48-1.01-1.09-1.36-1.84-.35-.75-.52-1.63-.52-2.64v-12.48c0-2.29.01-4.57.04-6.84.03-2.27.04-4.35.04-6.24v-7.64c.05-3.09.63-5.21,1.72-6.36,1.09-1.15,2.44-1.72,4.04-1.72,1.39,0,2.56.36,3.52,1.08.96.72,1.63,1.85,2,3.4,1.76-1.17,3.39-2.03,4.88-2.56,1.49-.53,3.12-.8,4.88-.8,2.13,0,4.04.53,5.72,1.6,1.68,1.07,3.13,2.85,4.36,5.36.75,1.49,1.03,2.85.84,4.08-.19,1.23-.79,2.13-1.8,2.72-.96.59-1.92.89-2.88.92-.96.03-1.89-.44-2.8-1.4-.37-.32-.72-.63-1.04-.92-.32-.29-.69-.55-1.12-.76-.43-.21-.93-.37-1.52-.48-.59-.11-1.33-.16-2.24-.16-1.76,0-3.45.52-5.08,1.57-1.18.76-1.88,2.08-1.88,3.48,0,3.78-.02,7.48-.04,11.11-.03,4.27-.04,8.4-.04,12.4,0,1.07-.19,1.99-.56,2.76-.37.77-.84,1.43-1.4,1.96-.56.53-1.19.95-1.88,1.24-.69.29-1.36.47-2,.52Z"/>
        <path class="cls-2" d="m98.12,144.13c-2.83,0-5.53-.41-8.12-1.24-2.59-.83-4.88-2.15-6.88-3.96-2-1.81-3.6-4.15-4.8-7-1.2-2.85-1.8-6.31-1.8-10.36,0-3.41.52-6.55,1.56-9.4,1.04-2.85,2.51-5.31,4.4-7.36,1.89-2.05,4.16-3.65,6.8-4.8,2.64-1.15,5.59-1.72,8.84-1.72,3.04,0,5.84.43,8.4,1.28,2.56.85,4.79,2.21,6.68,4.08,1.89,1.87,3.36,4.28,4.4,7.24s1.56,6.55,1.56,10.76c0,3.15-.43,6.08-1.28,8.8-.85,2.72-2.13,5.09-3.84,7.12-1.71,2.03-3.89,3.63-6.56,4.8-2.67,1.17-5.79,1.76-9.36,1.76Zm-10.4-22.8c0,3.52.95,6.41,2.84,8.68,1.89,2.27,4.44,3.4,7.64,3.4,1.81,0,3.37-.35,4.68-1.04,1.31-.69,2.37-1.6,3.2-2.72.83-1.12,1.43-2.39,1.8-3.8.37-1.41.56-2.87.56-4.36,0-2.29-.27-4.24-.8-5.84-.53-1.6-1.27-2.91-2.2-3.92-.93-1.01-2.04-1.75-3.32-2.2-1.28-.45-2.67-.68-4.16-.68-1.76,0-3.28.32-4.56.96-1.28.64-2.35,1.52-3.2,2.64-.85,1.12-1.48,2.44-1.88,3.96s-.6,3.16-.6,4.92Z"/>
        <path class="cls-2" d="m134,101.87c-4.18,1.25-8.02,3.59-10.18,7.79-1.04,2.03-1.36,4.23-1.39,6.48-.04,2.45-.07,4.9-.07,7.35,0,2.61.01,5.03.04,7.24.03,2.21.04,3.91.04,5.08,0,2.4.41,4.39,1.24,5.96.83,1.57,2.23,2.36,4.2,2.36s3.49-.68,4.56-2.04c1.07-1.36,1.6-2.87,1.6-4.52,0-.59-.03-1.71-.08-3.36-.05-1.65-.09-3.47-.12-5.44-.03-1.97-.07-3.93-.12-5.88-.05-1.95-.08-3.51-.08-4.68,0-2.4.57-4.19,1.72-5.36,1.15-1.17,2.76-1.76,4.84-1.76s3.53.56,4.52,1.68c.99,1.12,1.48,2.48,1.48,4.08s.08,3.99.24,7.16c.16,3.17.24,6.79.24,10.84,0,2.03.2,3.65.6,4.88.4,1.23.93,2.16,1.6,2.8.67.64,1.41,1.07,2.24,1.28l.88.06h.36l.88-.06c.83-.21,1.57-.64,2.24-1.28.67-.64,1.2-1.57,1.6-2.8.4-1.23.6-2.85.6-4.88,0-4.05.08-7.67.24-10.84.16-3.17.24-5.56.24-7.16s.49-2.96,1.48-4.08c.99-1.12,2.49-1.68,4.52-1.68s3.69.59,4.84,1.76c1.15,1.17,1.72,2.96,1.72,5.36,0,1.17-.03,2.73-.08,4.68-.05,1.95-.09,3.91-.12,5.88-.03,1.97-.07,3.79-.12,5.44-.05,1.65-.08,2.77-.08,3.36,0,1.65.53,3.16,1.6,4.52,1.07,1.36,2.59,2.04,4.56,2.04s3.37-.79,4.2-2.36c.83-1.57,1.24-3.56,1.24-5.96,0-1.17.01-2.87.04-5.08.03-2.21.04-4.63.04-7.24s-.03-5.28-.08-8.03c-.03-2.02-.46-4.01-1.38-5.8-3.38-6.57-11.53-10.04-18.65-8.28-6.11,1.52-9.88,5.48-9.89,5.48,0,0-8-8-18-5Z"/>
        <path class="cls-2" d="m220.63,144.13c-9.48,0-16.42-2.16-20.8-6.48-4.38-4.32-6.57-10.46-6.57-18.44,0-3.73.01-7.34.05-10.84.03-3.5.06-6.77.1-9.81.03-3.04.08-5.8.15-8.29.06-2.48.13-4.58.2-6.28.06-4.97,2.31-7.46,6.72-7.46,1.91,0,3.52.56,4.84,1.67,1.32,1.11,2.01,3.04,2.08,5.79v13.54c0,3.01-.02,6.2-.05,9.56-.03,3.37-.05,6.66-.05,9.86,0,4.97,1.03,8.6,3.08,10.89,2.05,2.29,5.39,3.43,10.02,3.43,4.17,0,7.28-1.32,9.33-3.97s3.08-5.97,3.08-9.96v-26.98c0-2.55.03-4.68.1-6.38.06-2.48.77-4.35,2.11-5.59,1.34-1.24,3.06-1.86,5.15-1.86,1.9,0,3.4.56,4.51,1.67,1.11,1.11,1.7,3.04,1.77,5.79,0,1.24.02,3.06.05,5.44.03,2.39.06,5.12.1,8.19.03,3.08.05,6.39.05,9.96v10.64c0,3.27-.46,6.46-1.37,9.56-.92,3.11-2.4,5.87-4.46,8.29-2.06,2.42-4.74,4.37-8.04,5.84-3.3,1.47-7.34,2.21-12.12,2.21Z"/>
      </g>
      <g>
        <path class="cls-1" d="m144.42,1.6c-8.62-.33-16.75,3.9-21.25,11.05C119.22,5.17,111.44.34,102.82.02c-13.19-.5-24.33,10.99-24.82,23.82-.47,12.23,5.56,23.3,13.22,32.33.12-.03,48.89-13.85,64.74-35.65,0,0-21.78,45.28-46.4,52.46,6.3,4.64,11.04,7.26,11.04,7.26,0,0,45.53-20.78,46.76-53,.49-12.83-9.75-25.13-22.94-25.64Z"/>
        <g>
          <polygon class="cls-3" points="168.65 9.64 132.27 20.04 147.17 29.17 168.65 9.64"/>
          <polygon class="cls-5" points="147.17 29.17 146.26 35.93 168.65 9.64 147.17 29.17"/>
          <polygon class="cls-4" points="151.22 30.11 159.45 31.78 168.65 9.64 151.22 30.11"/>
        </g>
      </g>
    </g>
  </g>
</svg>